<svg xmlns="http://www.w3.org/2000/svg" version="1.1" xmlns:xlink="http://www.w3.org/1999/xlink" width="28" height="28" x="0" y="0" viewBox="0 0 512 512" style="enable-background:new 0 0 512 512" xml:space="preserve" class=""><g><linearGradient id="a" x1="74.98" x2="437.02" y1="74.98" y2="437.02" gradientUnits="userSpaceOnUse"><stop offset="0" stop-color="#21d1f7"></stop><stop offset="1" stop-color="#2196f3"></stop></linearGradient><linearGradient id="b" x1="198.93" x2="420.78" y1="231.41" y2="453.25" gradientUnits="userSpaceOnUse"><stop offset="0" stop-color="#186eb3"></stop><stop offset=".93" stop-color="#186eb3" stop-opacity="0"></stop></linearGradient><g data-name="Layer 2"><circle cx="256" cy="256" r="256" fill="url(#a)" opacity="1" data-original="url(#a)" class=""></circle><path fill="url(#b)" d="M497.86 340.1c-31.49 90.57-112.42 158-210.48 170l-125-125L286.15 291 216 220.87l78-84.58z" opacity="1" data-original="url(#b)"></path><g fill="#fff"><path d="M330.34 391H181.66a34.4 34.4 0 0 1-34.4-34.4v-23.2A81.44 81.44 0 0 1 228.7 252h54.6a81.44 81.44 0 0 1 81.44 81.43v23.2a34.4 34.4 0 0 1-34.4 34.37z" fill="#ffffff" opacity="1" data-original="#ffffff" class=""></path><circle cx="256" cy="178.93" r="57.93" fill="#ffffff" opacity="1" data-original="#ffffff" class=""></circle></g></g></g></svg>