<svg xmlns="http://www.w3.org/2000/svg" version="1.1" xmlns:xlink="http://www.w3.org/1999/xlink" width="28" height="28" x="0" y="0" viewBox="0 0 512 512" style="enable-background:new 0 0 512 512" xml:space="preserve" class=""><g><path fill="#62dbfb" d="M495.323 177.057h-70.606L504.5 256.84v-70.606a9.177 9.177 0 0 0-9.177-9.177z" opacity="1" data-original="#62dbfb"></path><path fill="#c8effe" d="M423.582 248.799v-70.606l79.783 79.783h-70.606a9.177 9.177 0 0 1-9.177-9.177z" opacity="1" data-original="#c8effe"></path><path fill="#99e6fc" d="M424.717 177.057H110.648L7.5 139.41v226.935c0 24.241 19.651 43.892 43.892 43.892h409.216c24.241 0 43.892-19.651 43.892-43.892V256.84z" opacity="1" data-original="#99e6fc" class=""></path><path fill="#62dbfb" d="M474.5 226.84v107.505c0 24.241-19.651 43.892-43.892 43.892H21.392c-4.429 0-8.701-.662-12.731-1.882 4.531 19.415 21.936 33.882 42.731 33.882h409.216c24.241 0 43.892-19.651 43.892-43.892V256.84z" opacity="1" data-original="#62dbfb"></path><path fill="#01c0fa" d="M423.582 248.799v-70.606l79.783 79.783h-70.606a9.177 9.177 0 0 1-9.177-9.177zM107.244 177.057H45.147c-20.792 0-37.647-16.855-37.647-37.647 0-20.792 16.855-37.647 37.647-37.647h62.097z" opacity="1" data-original="#01c0fa" class=""></path><path d="M161.689 224.489a8.618 8.618 0 0 0-7.999-5.36h-.007a8.62 8.62 0 0 0-8.065 5.545l-19.035 49.979a7.5 7.5 0 0 0 14.017 5.339l2.901-7.617h20.23l2.867 7.596a7.504 7.504 0 0 0 7.019 4.854 7.5 7.5 0 0 0 7.015-10.15l-18.862-49.981a5.467 5.467 0 0 0-.081-.205zm-12.475 32.885 4.448-11.68 4.408 11.68zM68.519 219.563a7.5 7.5 0 0 0-5.268 7.16v50.598a7.5 7.5 0 0 0 15 0v-26.539l20.542 29.747c2.158 3.117 5.774 4.437 9.216 3.363 3.501-1.094 5.764-4.343 5.763-8.351l-.474-48.985a7.5 7.5 0 0 0-7.498-7.427h-.074a7.5 7.5 0 0 0-7.427 7.572l.262 27.097-21.64-31.336a7.497 7.497 0 0 0-8.402-2.899zM207.833 278.258l4.145-22.967 6.896 23.372a8.63 8.63 0 0 0 8.278 6.158h.043a8.63 8.63 0 0 0 8.26-6.236l6.655-23.346 4.414 23.093a7.5 7.5 0 0 0 14.733-2.816l-9.455-49.469a8.65 8.65 0 0 0-7.983-6.906 8.646 8.646 0 0 0-8.789 6.222l-7.981 27.997-8.282-28.071a8.649 8.649 0 0 0-8.857-6.139c-3.916.263-7.168 3.137-7.927 7.077l-8.91 49.365a7.5 7.5 0 0 0 6.049 8.713c4.07.738 7.975-1.971 8.711-6.047zM304.596 234.36a7.5 7.5 0 0 0 0-15h-21.165a7.5 7.5 0 0 0-7.5 7.5v50.23a7.5 7.5 0 0 0 7.5 7.5h21.165a7.5 7.5 0 0 0 0-15h-13.665v-10.115h12.104a7.5 7.5 0 0 0 0-15h-12.104V234.36z" fill="#000000" opacity="1" data-original="#000000" class=""></path><path d="M495.323 169.557H200.452a7.5 7.5 0 0 0 0 15h215.629v64.242c0 9.196 7.481 16.677 16.676 16.677H497v100.87c0 20.067-16.325 36.392-36.392 36.392h-18.962a7.5 7.5 0 0 0 0 15h18.962c28.338 0 51.392-23.054 51.392-51.392V186.233c0-9.195-7.481-16.676-16.677-16.676zm0 15c.925 0 1.677.752 1.677 1.677v52.5l-54.176-54.176h52.499zm-62.565 65.918a1.678 1.678 0 0 1-1.676-1.677v-52.5l54.176 54.176h-52.5z" fill="#000000" opacity="1" data-original="#000000" class=""></path><path d="M404.646 402.737H51.392C31.325 402.737 15 386.411 15 366.345V172.982c7.999 7.19 18.569 11.575 30.146 11.575h120.306a7.5 7.5 0 0 0 0-15h-50.708v-67.794a7.5 7.5 0 0 0-7.5-7.5H45.146C20.252 94.263 0 114.516 0 139.41v226.935c0 28.338 23.054 51.392 51.392 51.392h353.254a7.5 7.5 0 0 0 0-15zm-359.5-293.474h54.597v60.294H45.146C28.523 169.557 15 156.033 15 139.41s13.523-30.147 30.146-30.147z" fill="#000000" opacity="1" data-original="#000000" class=""></path><path d="M63.25 317.484a7.5 7.5 0 0 0 7.5 7.5H376a7.5 7.5 0 0 0 0-15H70.75a7.5 7.5 0 0 0-7.5 7.5zM70.75 343.447a7.5 7.5 0 0 0 0 15h119.805a7.5 7.5 0 0 0 0-15z" fill="#000000" opacity="1" data-original="#000000" class=""></path></g></svg>